<svg height="402pt" viewBox="0 -10 402 402" width="402pt" xmlns="http://www.w3.org/2000/svg"><path d="m349 0c29.269531 0 53 23.730469 53 53v8.113281c0 29.269531-23.730469 53-53 53h-53v-61.113281c0-29.269531 23.730469-53 53-53zm0 0" fill="#787d82"/><path d="m106 114.113281h-53c-29.269531 0-53-23.730469-53-53v-8.113281c0-29.269531 23.730469-53 53-53s53 23.730469 53 53zm0 0" fill="#787d82"/><path d="m330.390625 92.601562h-.054687c-2.125-.015624-4.152344-.875-5.644532-2.386718-1.488281-1.511719-2.316406-3.554688-2.300781-5.679688.082031-9.96875.066406-21.640625 0-26.214844-.289063-9.722656 4.710937-18.84375 13.066406-23.824218 8.355469-4.984375 18.753907-5.050782 27.171875-.171875 8.417969 4.878906 13.53125 13.933593 13.363282 23.660156v4c0 4.417969-3.582032 8-8 8-4.417969 0-8-3.582031-8-8v-4c.125-3.957031-1.921876-7.667969-5.339844-9.667969-3.414063-2-7.652344-1.976562-11.042969.070313-3.390625 2.042969-5.390625 5.777343-5.21875 9.734375.066406 4.621094.082031 16.4375 0 26.535156-.03125 4.394531-3.601563 7.945312-8 7.945312zm0 0" fill="#62666a"/><path d="m71.601562 92.601562c-4.398437 0-7.972656-3.550781-8-7.945312-.082031-10.097656-.066406-21.914062 0-26.542969.171876-3.957031-1.832031-7.691406-5.222656-9.734375-3.390625-2.042968-7.628906-2.066406-11.042968-.066406-3.414063 2.003906-5.464844 5.714844-5.335938 9.671875v4c0 4.417969-3.582031 8-8 8s-8-3.582031-8-8v-4c.019531-14.796875 12.011719-26.789063 26.808594-26.800781 7.164062.007812 14.027344 2.878906 19.058594 7.972656 5.035156 5.097656 7.820312 11.992188 7.742187 19.15625-.066406 4.582031-.082031 16.253906 0 26.222656.015625 2.125-.8125 4.167969-2.300781 5.679688-1.492188 1.511718-3.519532 2.371094-5.644532 2.386718zm0 0" fill="#62666a"/><path d="m290.953125 360.273438-49.601563 15.453124c-25.644531 7.992188-53.113281 7.992188-78.757812 0l-49.601562-15.453124c-40.820313-12.746094-73.019532-44.34375-86.535157-84.914063-11.757812-35.273437-8.207031-73.859375 9.78125-106.398437l7.082031-12.800782c3.289063-5.941406 5.726563-12.316406 7.246094-18.9375 13.136719-57.160156 57.339844-102.054687 114.289063-116.078125 24.394531-6.007812 49.878906-6.007812 74.273437 0 56.949219 14.011719 101.15625 58.898438 114.304688 116.054688 1.519531 6.621093 3.957031 12.992187 7.246094 18.9375l7.082031 12.800781c17.988281 32.539062 21.539062 71.125 9.78125 106.398438-13.519531 40.59375-45.746094 72.203124-86.589844 84.9375zm0 0" fill="#ebebeb"/><path d="m166 197.992188-24.382812 22.808593c-7.171876 6.722657-16.632813 10.464844-26.464844 10.464844-21.371094 0-38.699219-17.324219-38.703125-38.699219 0-17.1875 8.09375-33.367187 21.847656-43.679687l16.261719-12.167969c12.265625-9.203125 28.707031-10.597656 42.34375-3.59375 13.636718 7.007812 22.078125 21.1875 21.738281 36.515625-.230469 10.765625-4.785156 20.984375-12.640625 28.351563zm0 0" fill="#6f7478"/><path d="m233.113281 197.992188 24.375 22.808593c7.171875 6.722657 16.632813 10.464844 26.464844 10.464844 21.371094 0 38.699219-17.324219 38.703125-38.699219-.003906-17.1875-8.097656-33.367187-21.847656-43.679687l-16.265625-12.167969c-12.261719-9.203125-28.703125-10.597656-42.339844-3.59375-13.640625 7.007812-22.082031 21.1875-21.738281 36.515625.230468 10.765625 4.789062 20.984375 12.648437 28.351563zm0 0" fill="#6f7478"/><path d="m229.832031 310.207031c-9.785156.015625-19.398437-2.597656-27.832031-7.558593-16.59375 9.003906-36.671875 8.746093-53.03125-.679688l-2.96875-1.6875c-3.832031-2.210938-5.148438-7.109375-2.941406-10.941406 2.210937-3.832032 7.109375-5.148438 10.941406-2.941406l2.953125 1.699218c12.703125 7.316406 28.464844 6.769532 40.632813-1.410156 2.558593-1.707031 5.871093-1.792969 8.519531-.222656l4 2.398437c11.796875 6.957031 26.390625 7.183594 38.398437.59375l5.601563-3.105469c3.859375-2.054687 8.652343-.632812 10.765625 3.195313 2.113281 3.828125.757812 8.644531-3.039063 10.8125l-5.601562 3.105469c-8.089844 4.441406-17.171875 6.761718-26.398438 6.742187zm0 0" fill="#62666a"/><path d="m202 301.335938c-4.417969 0-8-3.582032-8-8v-33.335938c0-4.417969 3.582031-8 8-8s8 3.582031 8 8v33.335938c0 4.417968-3.582031 8-8 8zm0 0" fill="#62666a"/><path d="m202 347.28125c-8.878906-.007812-17.429688-3.359375-23.953125-9.386719l-5.453125-5c-3.257812-2.984375-3.476562-8.046875-.488281-11.300781 2.984375-3.257812 8.046875-3.476562 11.300781-.488281l5.457031 5c7.414063 6.871093 18.867188 6.871093 26.28125 0l5.449219-4.992188c3.253906-2.988281 8.316406-2.769531 11.300781.488281 2.988281 3.253907 2.769531 8.316407-.488281 11.300782l-5.445312 5c-6.527344 6.023437-15.082032 9.367187-23.960938 9.378906zm0 0" fill="#d8d8d8"/><path d="m150.839844 170.078125c0 9.054687-7.339844 16.394531-16.390625 16.394531-9.054688 0-16.394531-7.339844-16.394531-16.394531 0-9.050781 7.339843-16.390625 16.394531-16.390625 9.050781 0 16.390625 7.339844 16.390625 16.390625zm0 0" fill="#62666a"/><path d="m281.046875 170.078125c0 9.054687-7.335937 16.394531-16.390625 16.394531s-16.390625-7.339844-16.390625-16.394531c0-9.050781 7.335937-16.390625 16.390625-16.390625s16.390625 7.339844 16.390625 16.390625zm0 0" fill="#62666a"/><path d="m178.800781 232.800781h46.398438c3.148437-.003906 6.003906 1.839844 7.296875 4.707031 1.292968 2.871094.785156 6.230469-1.296875 8.589844l-16.640625 18.855469c-2.976563 3.375-7.238282 5.339844-11.738282 5.414063-4.5.070312-8.824218-1.753907-11.910156-5.03125l-17.941406-19.070313c-2.175781-2.328125-2.765625-5.722656-1.5-8.644531s4.144531-4.816406 7.332031-4.820313zm0 0" fill="#6f7478"/></svg>